<?xml version="1.0" encoding="UTF-8" standalone="no"?>
<!DOCTYPE svg PUBLIC "-//W3C//DTD SVG 1.1//EN" "http://www.w3.org/Graphics/SVG/1.1/DTD/svg11.dtd">
<svg xmlns="http://www.w3.org/2000/svg" xmlns:xlink="http://www.w3.org/1999/xlink" version="1.1" width="927.0833pt" height="474.99998pt" viewBox="0 0 927.0833 474.99998">
<g enable-background="new">
<clipPath id="cp0">
<path transform="matrix(.6666666,0,0,.6666666,0,0)" d="M 0 0 L 1390.625 0 L 1390.625 712.5 L 0 712.5 Z " fill-rule="evenodd"/>
</clipPath>
<g clip-path="url(#cp0)">
<path transform="matrix(2.0833333,0,0,2.0833333,0,0)" d="M 0 0 L 445 0 L 445 228 L 0 228 Z " fill="#ffffff"/>
</g>
<clipPath id="cp1">
<path transform="matrix(.6666666,0,0,.6666666,0,0)" d="M 0 0 L 1390.625 0 L 1390.625 712.5 L 0 712.5 Z " fill-rule="evenodd"/>
</clipPath>
<g clip-path="url(#cp1)">
<g id="Layer-1" data-name="P">
<g id="Layer-2" data-name="P">
</g>
<symbol id="font_2_39">
<path d="M .34600003 0 L 0 .82500007 L .21200001 .82500007 L .42000003 .28300003 L .628 .82500007 L .84000006 .82500007 L .49400003 0 L .34600003 0 Z "/>
</symbol>
<use xlink:href="#font_2_39" transform="matrix(147.5741,0,0,-147.5741,56.763467,194.21506)" fill="#00004d"/>
</g>
</g>
<clipPath id="cp3">
<path transform="matrix(.6666666,0,0,.6666666,0,0)" d="M 0 0 L 1390.625 0 L 1390.625 712.5 L 0 712.5 Z "/>
</clipPath>
<g clip-path="url(#cp3)">
<clipPath id="cp4">
<path transform="matrix(.6666666,0,0,.6666666,0,0)" d="M 0 0 L 1390.625 0 L 1390.625 712.5 L 0 712.5 Z "/>
</clipPath>
<g clip-path="url(#cp4)">
<clipPath id="cp5">
<path transform="matrix(.6666666,0,0,.6666666,0,0)" d="M 196.45105 213.00739 L 454.49394 .89424136 L 616.6981 198.22115 L 358.6552 410.3343 L 196.45105 213.00739 Z "/>
</clipPath>
<g clip-path="url(#cp5)">
<clipPath id="cp6">
<path transform="matrix(.6666666,0,0,.6666666,0,0)" d="M 196.45105 213.00739 L 454.49394 .89424136 L 616.6981 198.22115 L 358.6552 410.3343 L 196.45105 213.00739 Z "/>
</clipPath>
<g clip-path="url(#cp6)">
<path transform="matrix(.67109587,-.55164578,.55164578,.67109587,10.584508,111.7031)" d="M 118.78 218.72 C 118.63 216.7 118.549999 214.66 118.549999 212.6 C 118.549999 204.27 119.78999 196.24 122.09 188.66 C 125.24 197.53 136.31 203.98001 144.01 208.48001 C 146.26 209.80002 148.58 211.03002 150.73999 212.47002 C 154.87 211.39002 158.95 210.20001 162.98 208.92002 C 162.19 206.75002 161.81999 203.92002 162.26999 202.43001 C 163.4 198.72 166.85999 199.69 170.09999 199.41 C 180.71999 198.49 177.45 181.40001 182.18 175.05 C 185.64 170.40001 192.62 167.58 192.65 161.79001 C 192.67 156.99 187.53 153.38 187.43999 148.58 C 187.43 148.1 187.46999 147.62 187.54999 147.14 C 187.82999 145.3 188.55998 143.49 188.43 141.64 C 188.15999 137.92 184.7 135.3 181.84999 132.57 C 187.93 131.14002 194.26999 130.37001 200.79 130.37001 C 209.25 130.37001 217.42 131.65001 225.09999 134.03002 C 222.93999 139.97002 227.68 150.13002 232.95 153.47002 C 236.91 155.98001 242.47 156.96002 244.23999 161.30002 C 244.54999 162.07003 244.68999 162.84001 244.71999 163.60002 C 251.93999 157.34003 258.74 150.61002 265.06999 143.42002 C 265.99 142.38002 266.63999 141.64002 267.21998 141.12001 C 249.79998 124.92001 226.45998 115.01001 200.78998 115.01001 C 146.88999 115.01001 103.18998 158.71 103.18998 212.61002 C 103.18998 215.21002 103.28998 217.78002 103.48998 220.32003 C 108.64 219.92 113.73 219.39 118.78 218.72 Z " fill="#00004d"/>
<path transform="matrix(.67109587,-.55164578,.55164578,.67109587,10.584508,111.7031)" d="M 285.96 206.15 C 285.25999 206.54999 284.75 206.84999 284.52 206.98999 C 268.5 216.77999 251.32999 224.87999 233.37999 231.15999 C 233.29 231.96999 233.27999 232.76999 233.43 233.56999 C 234.23999 238.10999 238.68999 241.98 243.29 242.12 C 245.40999 242.19 247.81 241.69 249.45 243.04 C 250.44 243.86 250.87 245.15999 251.20999 246.4 C 253.43999 254.51 254.04999 263.06 252.98999 271.4 C 252.77999 273.08 252.51 274.79 252.60999 276.47 C 238.46999 287.96 220.43999 294.85 200.79999 294.85 C 196.87 294.85 192.99999 294.57 189.21999 294.03 C 189.25998 293.34 189.31999 292.66 189.41999 291.98 C 189.94998 288.55003 191.74999 285.34 194.39998 283.1 C 196.15998 281.62 198.47998 280.18 198.53998 277.88 C 198.59998 275.41 196.03998 273.86003 194.31998 272.09 C 190.95998 268.63999 190.55998 263.15 193.46997 259.49 C 197.25997 254.73 200.85997 249.74999 204.42998 244.76999 C 205.63999 243.07999 206.91999 241.15999 206.62998 239.09999 C 206.62998 239.07999 206.61998 239.06999 206.61998 239.04999 C 191.24999 242.74999 175.47998 245.18 159.51999 246.26 C 155.70999 246.51999 151.93 246.68999 148.16999 246.79999 C 147.80998 250.26999 148.08998 253.81999 149.08998 256.96 C 151.23998 263.71 157.07999 268.9 163.72998 271.34 C 165.47998 271.98 167.33998 272.47 168.80998 273.61 C 170.28998 274.75 171.28998 276.78 170.57999 278.5 C 170.15999 279.53 169.18 280.37 169.16999 281.48 C 169.15999 282.25 169.62999 282.93003 170.06998 283.55003 C 170.88999 284.69004 172.43997 287.42 174.27999 290.48 C 152.71999 283.14 135.18999 267.08003 125.86998 246.52002 C 123.29998 246.38002 120.73998 246.21002 118.20998 245.99002 L 117.83997 245.96002 C 115.25997 245.74002 112.08997 245.46002 108.699977 244.98003 C 122.04997 282.97004 158.23998 310.21003 200.79998 310.21003 C 254.69998 310.21003 298.39997 266.51 298.39997 212.61002 C 298.39997 208.01001 298.06999 203.48001 297.45997 199.05002 C 295.23 200.73 291.62 202.88 285.96 206.15 Z " fill="#00004d"/>
<path transform="matrix(.67109587,-.55164578,.55164578,.67109587,10.584508,111.7031)" d="M 235.12 175.96 C 234.08 175.54001 195.07999 213.66 117.38999 222.84001 C 112.80999 223.38 98.85999 224.91002 95.079998 224.22002 C 90.78999 223.44002 87.20999 220.83002 91.45 213.23001 C 88.57 216.69002 85.09 219.50002 85.049999 224.51001 C 84.909999 239.43001 107.84999 241.24 118.53999 242.16 C 132.06999 243.33 151.19 242.05 164.56999 239.74 C 197.18 234.1 214.01999 223.83 253.15999 204.20001 C 253.15999 204.20001 253.16999 192.75002 253.15999 184.1 C 253.14 184.08 245.76 180.29 235.12 175.96 Z " fill="#00004d"/>
<path transform="matrix(.67109587,-.55164578,.55164578,.67109587,10.584508,111.7031)" d="M 339.54 130.93 C 336.81 126.579998 325.47 128.73999 321.12 131.46999 L 316.41 134.43 L 269.71 123.17999 C 268.37 122.78999 266.81999 123.03999 265.52 123.84999 C 262.78999 125.55999 262.19 129.02999 264.31 130.84999 L 288.77 150.15999 L 263.43 172.21999 L 251.46999 167.18999 C 250.05998 166.59999 248.45999 166.72998 247.16999 167.54 L 242.95998 170.18 C 241.96997 170.79999 242.01998 172.25 243.04998 172.79999 L 258.64997 181.33998 L 259.37998 198.83998 C 259.42997 199.99999 260.71998 200.67998 261.69999 200.05998 L 265.90998 197.41999 C 267.19999 196.60999 268.01997 195.21999 268.09999 193.69998 L 268.71998 181.76999 L 298.42997 167.76 L 306.11997 203.2 C 306.82997 205.9 310.20997 206.87 312.93998 205.16 C 314.23997 204.35 315.13999 203.06 315.36997 201.68001 L 326.32997 150.25 L 331.03996 147.29 C 335.39 144.56 342.27 135.28 339.54 130.93 Z M 330.41 143.82 C 331.33003 136.16 323.74 133.13 323.74 133.13 C 323.74 133.13 331.49 129.5 334.28999 133.98001 C 337.24 138.7 330.41 143.82 330.41 143.82 Z " fill="#00004d"/>
</g>
</g>
</g>
</g>
<clipPath id="cp7">
<path transform="matrix(.6666666,0,0,.6666666,0,0)" d="M 0 0 L 1390.625 0 L 1390.625 712.5 L 0 712.5 Z " fill-rule="evenodd"/>
</clipPath>
<g clip-path="url(#cp7)">
<g id="Layer-1" data-name="H1">
<g id="Layer-2" data-name="P">
</g>
<symbol id="font_2_3b">
<path d="M .866 0 L .623 0 L .42800004 .28100003 L .23300001 0 L 0 0 L .31200005 .44400005 L .052 .82500007 L .27600003 .82500007 L .42800004 .6 L .58 .82500007 L .814 .82500007 L .544 .44400005 L .866 0 Z "/>
</symbol>
<symbol id="font_2_24">
<path d="M .507 .82500007 L .84000006 0 L .638 0 L .577 .165 L .263 .165 L .202 0 L 0 0 L .333 .82500007 L .507 .82500007 M .513 .33 L .421 .57000008 L .41900004 .57000008 L .32700003 .33 L .513 .33 Z "/>
</symbol>
<symbol id="font_2_29">
<path d="M .477 .82500007 L .477 .66 L .18800001 .66 L .18800001 .49600003 L .45500005 .49600003 L .45500005 .33100004 L .18800001 .33100004 L .18800001 0 L 0 0 L 0 .82500007 L .477 .82500007 Z "/>
</symbol>
<symbol id="font_2_2f">
<path d="M .18800001 .82500007 L .18800001 .165 L .472 .165 L .472 0 L 0 0 L 0 .82500007 L .18800001 .82500007 Z "/>
</symbol>
<symbol id="font_2_3c">
<path d="M 0 .82500007 L .22600001 .82500007 L .39800004 .56100007 L .57000008 .82500007 L .796 .82500007 L .492 .37 L .492 0 L .30400003 0 L .30400003 .37 L 0 .82500007 Z "/>
</symbol>
<use xlink:href="#font_2_3b" transform="matrix(147.5741,0,0,-147.5741,351.227,194.21506)" fill="#00004d"/>
<use xlink:href="#font_2_24" transform="matrix(147.5741,0,0,-147.5741,469.866,194.21506)" fill="#00004d"/>
<use xlink:href="#font_2_29" transform="matrix(147.5741,0,0,-147.5741,598.5402,194.21506)" fill="#00004d"/>
<use xlink:href="#font_2_2f" transform="matrix(147.5741,0,0,-147.5741,682.2072,194.21506)" fill="#00004d"/>
<use xlink:href="#font_2_3c" transform="matrix(147.5741,0,0,-147.5741,752.2975,194.21506)" fill="#00004d"/>
</g>
<g id="Layer-1" data-name="H1">
<g id="Layer-2" data-name="P">
</g>
<symbol id="font_2_27">
<path d="M 0 .82500007 L .23900002 .82500007 C .3536667 .82500007 .45166669 .7856667 .53300008 .707 C .6143334 .629 .65500006 .531 .65500006 .41300003 C .65500006 .29433335 .6143334 .19566667 .53300008 .117000009 C .45233337 .039 .35433338 0 .23900002 0 L 0 0 L 0 .82500007 M .18800001 .16800002 L .21700001 .16800002 C .28566668 .16800003 .3416667 .19100003 .38500003 .23700002 C .42900003 .2836667 .45133338 .342 .45200003 .41200004 C .45200003 .48200003 .43000005 .54033336 .386 .587 C .34266667 .6336667 .28633336 .657 .21700001 .657 L .18800001 .657 L .18800001 .16800002 Z "/>
</symbol>
<symbol id="font_2_30">
<path d="M .7260001 0 L .68700006 .48900003 L .68200007 .48900003 L .5130001 .0050000005 L .40100003 .0050000005 L .23200001 .48900003 L .22700002 .48900003 L .18800001 0 L 0 0 L .074 .82500007 L .27400003 .82500007 L .45700003 .349 L .64000007 .82500007 L .8400001 .82500007 L .9140001 0 L .7260001 0 Z "/>
</symbol>
<symbol id="font_2_2c">
<path d="M .18800001 .82500007 L .18800001 0 L 0 0 L 0 .82500007 L .18800001 .82500007 Z "/>
</symbol>
<symbol id="font_2_31">
<path d="M .18800001 .512 L .18800001 0 L 0 0 L 0 .82500007 L .18800001 .82500007 L .51600006 .31300003 L .518 .31300003 L .518 .82500007 L .70600005 .82500007 L .70600005 0 L .518 0 L .19 .512 L .18800001 .512 Z "/>
</symbol>
<use xlink:href="#font_2_24" transform="matrix(147.57408,0,0,-147.57408,192.54506,372.86979)" fill="#00004d"/>
<use xlink:href="#font_2_27" transform="matrix(147.57408,0,0,-147.57408,321.2193,372.86979)" fill="#00004d"/>
<use xlink:href="#font_2_30" transform="matrix(147.57408,0,0,-147.57408,423.626,372.86979)" fill="#00004d"/>
<use xlink:href="#font_2_2c" transform="matrix(147.57408,0,0,-147.57408,569.71188,372.86979)" fill="#00004d"/>
<use xlink:href="#font_2_31" transform="matrix(147.57408,0,0,-147.57408,615.1606,372.86979)" fill="#00004d"/>
</g>
</g>
<g id="Layer-1" data-name="Image">
<path transform="matrix(2.7777777,0,0,-2.7777777,0,497.33329)" d="M 47.147859 80.719799 L 148.1389 80.719799 L 148.1389 179.04001 L 47.147859 179.04001 Z " fill-opacity="0"/>
</g>
</g>
</svg>
